<svg version="1.1" id="Layer_1" xmlns="http://www.w3.org/2000/svg" xmlns:xlink="http://www.w3.org/1999/xlink" x="0px" y="0px" width="100%" viewBox="0 0 124 195" enable-background="new 0 0 124 195" xml:space="preserve">

<path fill="#165EA3" opacity="1.000000" stroke="none" d="
M62.200672,31.903545 
	C67.966286,32.101009 70.565918,26.837051 74.860252,24.473850 
	C78.391685,22.530474 81.525986,19.865410 85.325607,17.086319 
	C86.518570,15.746160 87.222229,14.839888 87.925880,13.933615 
	C87.925880,13.933614 87.987228,14.002485 88.351685,14.172601 
	C88.796677,13.863908 88.877205,13.385099 88.957733,12.906291 
	C88.957733,12.906291 88.993942,12.985145 89.297653,13.269810 
	C93.435928,12.482191 91.766243,15.584708 91.792068,16.796761 
	C92.060738,29.404310 92.162041,42.015427 92.212875,55.066277 
	C92.831383,60.226318 90.382263,63.012234 86.743668,65.661583 
	C78.990250,71.307037 71.550385,77.383118 63.669277,83.376068 
	C50.177280,93.650520 36.998035,103.831635 23.524424,114.173111 
	C20.204844,116.209824 17.179628,118.086182 14.090878,119.499268 
	C14.018849,105.269913 13.942907,91.503235 14.062374,77.738258 
	C14.084577,75.180023 14.893090,72.628609 15.338708,70.074051 
	C20.993223,65.788780 26.647738,61.503517 32.740578,57.240288 
	C33.450939,57.143688 33.722973,57.025043 33.995007,56.906403 
	C33.995007,56.906403 33.995918,56.987854 34.267441,56.843781 
	C38.063835,53.119633 41.401470,49.327587 45.157818,46.009563 
	C50.681957,41.130035 56.504978,36.588860 62.200672,31.903545 
z" data-index="1" style="opacity: 1;"></path>
<path fill="#4B8FCB" opacity="1.000000" stroke="none" d="
M63.982029,83.282730 
	C71.550385,77.383118 78.990250,71.307037 86.743668,65.661583 
	C90.382263,63.012234 92.831383,60.226318 92.476845,55.171761 
	C93.189178,54.953667 93.540634,55.070816 93.892097,55.187965 
	C100.205078,59.905926 106.518051,64.623886 112.987221,69.954086 
	C113.356972,71.068756 113.570526,71.571175 113.444321,72.110329 
	C109.195511,74.782242 105.286476,77.417412 101.139793,79.738815 
	C99.188904,79.682381 97.309204,79.571815 95.790443,80.258987 
	C88.103905,83.736794 80.511177,87.421921 72.585609,90.956863 
	C71.521255,90.204071 70.756844,89.528786 69.914848,88.489655 
	C68.874809,87.784576 67.912354,87.443336 66.978958,87.067482 
	C67.008018,87.032875 66.934364,87.083809 67.116394,86.705200 
	C66.837029,86.237473 66.375648,86.148354 65.961220,86.065376 
	C66.008179,86.071518 65.986420,86.163704 66.263504,85.911560 
	C65.687729,84.867180 64.834885,84.074951 63.982029,83.282730 
z" data-index="2" style="opacity: 1;"></path>
<path fill="#4C90CC" opacity="1.000000" stroke="none" d="
M14.154413,119.962532 
	C17.179628,118.086182 20.204844,116.209824 23.870899,114.304649 
	C26.753201,113.848618 28.994659,113.421402 31.585455,112.958733 
	C37.603844,110.121529 43.397457,107.540596 48.897003,104.438370 
	C52.409771,102.456871 55.173759,102.747429 58.353779,104.997711 
	C60.658150,106.628357 63.418880,107.614105 65.825150,109.222809 
	C63.696400,110.332123 61.437389,110.726479 59.790298,111.946770 
	C53.248035,116.793755 47.125412,122.236931 40.392456,126.785988 
	C36.090771,129.692383 34.296257,133.046707 34.995636,138.006439 
	C34.978779,138.021286 34.948112,138.054565 34.948112,138.054565 
	C29.754265,134.390244 24.560417,130.725922 18.911903,126.764839 
	C18.130640,126.432289 17.965561,126.249542 17.961998,125.919846 
	C17.961998,125.919846 18.055307,125.984924 17.964603,125.653740 
	C17.227018,125.240623 16.580137,125.158691 15.933256,125.076767 
	C15.933256,125.076759 15.992275,124.999336 16.099426,124.678558 
	C15.775024,124.253723 15.343471,124.149651 14.911917,124.045578 
	C14.911917,124.045578 14.994193,124.004509 15.185331,123.728386 
	C14.969118,122.289017 14.561767,121.125778 14.154413,119.962532 
z" data-index="3" style="opacity: 1;"></path>
<path fill="#4D91CD" opacity="1.000000" stroke="none" d="
M81.858261,174.520065 
	C76.600273,170.544266 71.342285,166.568481 65.825188,162.030304 
	C65.328178,161.201492 65.090286,160.935028 64.908600,160.342224 
	C68.600571,156.945374 72.103935,153.698334 75.904610,150.847687 
	C81.004013,147.022934 86.333290,143.504669 91.691238,140.316559 
	C91.818588,153.950714 91.818588,167.123138 91.818588,180.395386 
	C89.181671,179.510834 87.061600,178.799652 84.941528,178.088486 
	C84.941528,178.088486 84.997009,178.015762 85.209732,177.709961 
	C84.586807,176.952652 83.751167,176.501175 82.915520,176.049683 
	C82.915520,176.049683 82.984932,176.016891 83.042709,175.676468 
	C82.686417,175.064056 82.272339,174.792053 81.858261,174.520065 
z" data-index="4" style="opacity: 1;"></path>
<path fill="#4A8FCC" opacity="1.000000" stroke="none" d="
M62.024555,31.604504 
	C56.504978,36.588860 50.681957,41.130035 45.157818,46.009563 
	C41.401470,49.327587 38.063835,53.119633 34.226727,56.842701 
	C34.614063,54.903255 35.313637,52.820816 36.356743,50.050629 
	C36.783978,36.965176 36.867676,24.567467 36.951378,12.169758 
	C41.959831,15.929823 46.994507,19.655628 51.967564,23.461943 
	C55.306366,26.017422 58.557873,28.686956 62.024555,31.604504 
z" data-index="5"></path>
<path fill="#FBFCFE" opacity="1.000000" stroke="none" d="
M85.067566,178.415466 
	C87.061600,178.799652 89.181671,179.510834 91.818588,180.395386 
	C91.818588,167.123138 91.818588,153.950714 91.815140,139.981689 
	C97.876167,134.454422 104.035614,129.837936 109.945663,124.921631 
	C111.656609,123.498367 113.769241,121.232552 113.799294,119.323112 
	C114.047142,103.577248 113.847885,87.824356 113.784088,72.073593 
	C113.570526,71.571175 113.356972,71.068756 113.123245,70.277283 
	C114.070160,71.176888 115.864525,72.355530 115.879036,73.555695 
	C116.067955,89.175621 115.941444,104.799004 116.037575,120.420624 
	C116.072823,126.148094 110.438232,126.551834 107.617195,129.501556 
	C104.253670,133.018509 99.453888,135.122543 95.529266,138.164978 
	C94.272118,139.139526 93.135201,141.139191 93.107567,142.690582 
	C92.906342,153.988098 92.974464,165.291046 93.029854,176.591934 
	C93.039917,178.644943 93.382103,180.696350 93.703857,184.192429 
	C89.947304,181.786713 87.570457,180.264572 85.067566,178.415466 
z" data-index="6" style="opacity: 1;"></path>
<path fill="#ECF2F7" opacity="1.000000" stroke="none" d="
M64.852402,160.668579 
	C65.090286,160.935028 65.328178,161.201492 65.700325,161.697632 
	C61.236423,165.114304 56.552086,168.185501 52.066666,171.523956 
	C48.298943,174.328201 44.831722,177.534439 41.088776,180.374680 
	C39.690434,181.435776 37.888309,181.964783 36.270302,182.736420 
	C35.907833,180.918335 35.545364,179.100266 35.641151,177.277557 
	C36.099407,177.272919 36.472355,177.280411 36.438934,177.660233 
	C36.841553,181.626923 38.487705,179.303375 39.485630,178.555084 
	C46.247318,173.484787 52.905464,168.275787 59.694817,163.243469 
	C61.215027,162.116714 63.122967,161.513062 64.852402,160.668579 
z" data-index="7"></path>
<path fill="#F9FAFB" opacity="1.000000" stroke="none" d="
M14.090879,119.499268 
	C14.561767,121.125778 14.969118,122.289017 15.153124,123.761200 
	C14.285151,122.714355 13.091735,121.363342 13.079926,120.002068 
	C12.946989,104.677513 12.960348,89.351166 13.058077,74.026077 
	C13.066468,72.710205 13.958145,71.399963 14.889107,70.080582 
	C14.893090,72.628609 14.084577,75.180023 14.062374,77.738258 
	C13.942907,91.503235 14.018849,105.269913 14.090879,119.499268 
z" data-index="8"></path>
<path fill="#F2F7F9" opacity="1.000000" stroke="none" d="
M93.945244,54.740540 
	C93.540634,55.070816 93.189178,54.953667 92.573746,54.731037 
	C92.162041,42.015427 92.060738,29.404310 91.792068,16.796761 
	C91.766243,15.584708 93.435928,12.482191 89.262100,13.244940 
	C90.107536,12.314644 91.292229,11.693883 92.476921,11.073122 
	C92.988838,12.525744 93.964828,13.986546 93.939392,15.429698 
	C93.732712,27.157503 93.306175,38.881298 93.049698,50.608566 
	C93.023003,51.829247 93.666077,53.064579 93.945244,54.740540 
z" data-index="9"></path>
<path fill="#89B6DE" opacity="1.000000" stroke="none" d="
M36.572472,12.253799 
	C36.867676,24.567467 36.783978,36.965176 36.422676,49.671936 
	C36.094620,40.856472 36.021351,31.731991 36.005474,22.607409 
	C35.999519,19.184338 36.126957,15.761037 36.572472,12.253799 
z" data-index="10"></path>
<path fill="#6C9AC3" opacity="1.000000" stroke="none" d="
M36.472355,177.280411 
	C36.472355,177.280411 36.099407,177.272919 36.001968,177.113815 
	C35.936195,166.503113 36.013573,156.051285 35.957905,145.600159 
	C35.947727,143.689896 35.395626,141.782516 35.305779,139.454803 
	C35.517876,139.035797 35.779171,139.055939 36.113686,139.319016 
	C36.456253,152.148193 36.464306,164.714310 36.472355,177.280411 
z" data-index="11"></path>
<path fill="#F2F7F9" opacity="1.000000" stroke="none" d="
M87.578926,13.957821 
	C87.222229,14.839888 86.518570,15.746160 85.485054,16.769505 
	C85.847458,15.918395 86.539719,14.950210 87.578926,13.957821 
z" data-index="12"></path>
<path fill="#FBFCFE" opacity="1.000000" stroke="none" d="
M83.004677,176.335342 
	C83.751167,176.501175 84.586807,176.952652 85.174133,177.738403 
	C84.315147,177.588760 83.704491,177.104874 83.004677,176.335342 
z" data-index="13"></path>
<path fill="#F9FAFB" opacity="1.000000" stroke="none" d="
M16.041622,125.379608 
	C16.580137,125.158691 17.227018,125.240623 17.938602,125.704330 
	C17.385530,125.951561 16.767759,125.817009 16.041622,125.379608 
z" data-index="14"></path>
<path fill="#F9FAFB" opacity="1.000000" stroke="none" d="
M14.981531,124.305435 
	C15.343471,124.149651 15.775024,124.253723 16.078367,124.722244 
	C15.650486,124.912888 15.350816,124.739090 14.981531,124.305435 
z" data-index="15"></path>
<path fill="#F9FAFB" opacity="1.000000" stroke="none" d="
M18.010094,126.120773 
	C17.965561,126.249542 18.130640,126.432289 18.570408,126.628868 
	C18.374098,126.768852 18.165636,126.612869 18.010094,126.120773 
z" data-index="16"></path>
<path fill="#4C90CC" opacity="1.000000" stroke="none" d="
M35.779171,139.055939 
	C35.779171,139.055939 35.517876,139.035797 35.387360,139.034195 
	C35.190998,138.874023 35.125149,138.715439 35.003708,138.305695 
	C34.948112,138.054565 34.978779,138.021286 35.218742,138.099792 
	C35.720459,138.414230 35.827282,138.706787 35.779171,139.055939 
z" data-index="17"></path>
<path fill="#4A8FCC" opacity="1.000000" stroke="none" d="
M33.720585,56.709633 
	C33.722973,57.025043 33.450939,57.143688 33.060890,57.112759 
	C33.110634,56.813080 33.278397,56.662971 33.720585,56.709633 
z" data-index="18"></path>
<path fill="#FBFCFE" opacity="1.000000" stroke="none" d="
M81.893631,174.874054 
	C82.272339,174.792053 82.686417,175.064056 83.033051,175.713623 
	C82.620064,175.803467 82.274529,175.515762 81.893631,174.874054 
z" data-index="19"></path>
<path fill="#F2F7F9" opacity="1.000000" stroke="none" d="
M88.693985,12.975847 
	C88.877205,13.385099 88.796677,13.863908 88.310989,14.150871 
	C88.080635,13.654486 88.255440,13.349945 88.693985,12.975847 
z" data-index="20"></path>
<path fill="#EEF3F8" opacity="1.000000" stroke="none" d="
M31.236116,112.994186 
	C28.994659,113.421402 26.753201,113.848618 24.165264,114.144287 
	C36.998035,103.831635 50.177280,93.650520 63.669277,83.376068 
	C64.834885,84.074951 65.687729,84.867180 65.892181,85.846130 
	C64.744011,86.039284 64.083603,85.838051 63.767826,86.082314 
	C54.255760,93.440086 44.741390,100.796165 35.329411,108.280815 
	C33.728180,109.554161 32.588844,111.408348 31.236116,112.994186 
z" data-index="21"></path>
<path fill="#155EA2" opacity="1.000000" stroke="none" d="
M36.113686,139.319016 
	C35.827282,138.706787 35.720459,138.414230 35.235603,138.084930 
	C34.296257,133.046707 36.090771,129.692383 40.392456,126.785988 
	C47.125412,122.236931 53.248035,116.793755 59.790298,111.946770 
	C61.437389,110.726479 63.696400,110.332123 65.836578,109.256760 
	C65.998970,108.955330 65.933586,108.983795 66.267609,108.947800 
	C67.061768,108.249565 67.521912,107.587318 67.986862,106.958603 
	C67.991669,106.992142 67.925850,106.976059 68.247551,106.993637 
	C69.047379,106.645271 69.525505,106.279343 70.128860,105.599030 
	C74.153671,102.169113 78.053253,99.053581 82.316261,95.949707 
	C82.773796,95.610748 82.867912,95.260132 82.972321,94.945587 
	C82.982613,94.981644 82.910568,94.960800 83.301758,95.161743 
	C84.104622,94.550743 84.516296,93.738800 84.958664,92.962753 
	C84.989349,92.998642 84.907227,92.951935 85.322952,93.179184 
	C85.809410,92.906654 85.880135,92.406876 85.977219,91.950409 
	C86.003563,91.993713 85.937294,91.917625 86.185013,92.267731 
	C88.265266,91.053932 90.097809,89.490021 91.959091,87.962173 
	C91.987831,87.998222 91.907295,87.953308 92.323380,88.175140 
	C92.809853,87.900383 92.880241,87.403786 92.976913,86.951599 
	C93.003204,86.996002 92.941902,86.914024 93.165085,87.269768 
	C96.051323,85.101204 98.714378,82.576897 101.377434,80.052582 
	C105.286476,77.417412 109.195511,74.782242 113.444321,72.110329 
	C113.847885,87.824356 114.047142,103.577248 113.799294,119.323112 
	C113.769241,121.232552 111.656609,123.498367 109.945663,124.921631 
	C104.035614,129.837936 97.876167,134.454422 91.687790,139.519943 
	C86.333290,143.504669 81.004013,147.022934 75.904610,150.847687 
	C72.103935,153.698334 68.600571,156.945374 64.908600,160.342224 
	C63.122967,161.513062 61.215027,162.116714 59.694817,163.243469 
	C52.905464,168.275787 46.247318,173.484787 39.485630,178.555084 
	C38.487705,179.303375 36.841553,181.626923 36.438934,177.660233 
	C36.464306,164.714310 36.456253,152.148193 36.113686,139.319016 
z" data-index="22" style="opacity: 1;"></path>

<path fill="#F1F6FA" opacity="1.000000" stroke="none" d="
M93.165085,87.269768 
	C93.843910,85.793976 94.745918,84.673927 95.647926,83.553871 
	C95.471436,83.197052 95.294952,82.840225 95.118469,82.483406 
	C91.522598,84.386253 88.031029,86.534210 84.300842,88.121399 
	C80.738228,89.637299 76.927208,90.569382 73.055466,91.396240 
	C80.511177,87.421921 88.103905,83.736794 95.790443,80.258987 
	C97.309204,79.571815 99.188904,79.682381 101.139793,79.738815 
	C98.714378,82.576897 96.051323,85.101204 93.165085,87.269768 
z" data-index="24"></path>
<path fill="#EEF3F8" opacity="1.000000" stroke="none" d="
M69.914848,88.489655 
	C69.047890,88.477737 68.103340,88.101982 67.054352,87.414154 
	C67.912354,87.443336 68.874809,87.784576 69.914848,88.489655 
z" data-index="25"></path>
<path fill="#EEF3F8" opacity="1.000000" stroke="none" d="
M67.116394,86.705200 
	C66.637398,86.914345 66.340439,86.744881 65.978867,86.317322 
	C66.375648,86.148354 66.837029,86.237473 67.116394,86.705200 
z" data-index="26"></path>
<path fill="#F1F6FA" opacity="1.000000" stroke="none" d="
M86.185013,92.267731 
	C87.700562,90.605171 89.463821,89.292725 91.578720,87.953194 
	C90.097809,89.490021 88.265266,91.053932 86.185013,92.267731 
z" data-index="27"></path>
<path fill="#4C90CC" opacity="1.000000" stroke="none" d="
M66.267609,108.947800 
	C66.433350,108.375786 66.933113,107.767784 67.707474,107.042427 
	C67.521912,107.587318 67.061768,108.249565 66.267609,108.947800 
z" data-index="28"></path>
<path fill="#F1F6FA" opacity="1.000000" stroke="none" d="
M83.301758,95.161743 
	C83.391098,94.339851 83.871620,93.718895 84.640060,93.012398 
	C84.516296,93.738800 84.104622,94.550743 83.301758,95.161743 
z" data-index="29"></path>
<path fill="#4C90CC" opacity="1.000000" stroke="none" d="
M68.247551,106.993637 
	C68.409462,106.651901 68.893074,106.327736 69.690163,105.958496 
	C69.525505,106.279343 69.047379,106.645271 68.247551,106.993637 
z" data-index="30"></path>
<path fill="#F1F6FA" opacity="1.000000" stroke="none" d="
M82.316254,95.949707 
	C82.119492,95.643196 82.286156,95.348335 82.707413,94.981499 
	C82.867912,95.260132 82.773796,95.610748 82.316254,95.949707 
z" data-index="31"></path>
<path fill="#F1F6FA" opacity="1.000000" stroke="none" d="
M85.322952,93.179184 
	C85.080757,92.649635 85.254280,92.347343 85.689331,91.976074 
	C85.880135,92.406876 85.809410,92.906654 85.322952,93.179184 
z" data-index="32"></path>
<path fill="#F1F6FA" opacity="1.000000" stroke="none" d="
M92.323380,88.175140 
	C92.080704,87.650711 92.254120,87.348114 92.689087,86.976357 
	C92.880241,87.403786 92.809853,87.900383 92.323380,88.175140 
z" data-index="33"></path>
</svg>